<svg height="512pt" viewBox="0 -13 512 512" width="512pt" xmlns="http://www.w3.org/2000/svg"><path d="m298.832031 50.332031v35.871094c-10.503906 10.503906-16.394531 16.394531-26.898437 26.898437h-31.867188c-10.503906-10.503906-16.394531-16.394531-26.898437-26.898437v-35.871094c0-23.65625 19.175781-42.832031 42.832031-42.832031s42.832031 19.175781 42.832031 42.832031zm0 0" fill="#ffdaaa"/><path d="m173.167969 130.734375v114.625c5.148437 5.148437 8.035156 8.035156 13.183593 13.183594h23.332032v141.28125h33.933594l12.355468-12.355469h.054688l12.359375 12.355469h33.933593v-141.28125h23.332032c5.148437-5.148438 8.035156-8.035157 13.183594-13.183594v-114.625c-6.890626-6.886719-10.75-10.746094-17.636719-17.632813h-130.398438c-6.886719 6.886719-10.746093 10.746094-17.632812 17.632813zm0 0" fill="#d7fc7e"/><path d="m133.164062 50.332031v35.871094c-10.503906 10.503906-16.394531 16.394531-26.898437 26.898437h-31.867187c-10.503907-10.503906-16.390626-16.394531-26.894532-26.898437v-35.871094c0-23.65625 19.175782-42.832031 42.828125-42.832031 23.65625 0 42.832031 19.175781 42.832031 42.832031zm0 0" fill="#ffdaaa"/><path d="m7.5 130.734375v114.625c5.148438 5.148437 8.035156 8.035156 13.183594 13.183594h23.332031v141.28125h33.933594l12.355469-12.355469h.058593l12.355469 12.355469h33.933594v-141.28125h23.332031c5.148437-5.148438 8.035156-8.035157 13.183594-13.183594v-114.625c-6.886719-6.886719-10.75-10.746094-17.636719-17.632813h-130.394531c-6.890625 6.886719-10.75 10.746094-17.636719 17.632813zm0 0" fill="#ffb655"/><path d="m464.496094 50.332031v35.871094c-10.503906 10.503906-16.390625 16.394531-26.894532 26.898437h-31.871093c-10.503907-10.503906-16.390625-16.394531-26.894531-26.898437v-35.871094c0-23.65625 19.175781-42.832031 42.828124-42.832031 23.65625 0 42.832032 19.175781 42.832032 42.832031zm0 0" fill="#ffdaaa"/><path d="m338.832031 130.734375v114.625c5.148438 5.148437 8.035157 8.035156 13.183594 13.183594h23.332031v141.28125h33.933594l12.355469-12.355469h.058593l12.355469 12.355469h33.933594v-141.28125h23.332031c5.148438-5.148438 8.035156-8.035157 13.183594-13.183594v-114.625c-6.886719-6.886719-10.746094-10.746094-17.636719-17.632813h-130.394531c-6.886719 6.886719-10.75 10.746094-17.636719 17.632813zm0 0" fill="#ff8243"/><path d="m116.507812 452.84375c0 14.46875-11.730468 26.199219-26.203124 26.199219-14.46875 0-26.203126-11.730469-26.203126-26.199219 0-14.472656 11.734376-26.203125 26.203126-26.203125 14.472656 0 26.203124 11.730469 26.203124 26.203125zm0 0" fill="#57a4ff"/><path d="m282.175781 452.84375c0 14.46875-11.734375 26.199219-26.203125 26.199219-14.472656 0-26.203125-11.730469-26.203125-26.199219 0-14.472656 11.730469-26.203125 26.203125-26.203125 14.46875 0 26.203125 11.730469 26.203125 26.203125zm0 0" fill="#57a4ff"/><path d="m447.839844 452.84375c0 14.46875-11.730469 26.199219-26.203125 26.199219-14.46875 0-26.199219-11.730469-26.199219-26.199219 0-14.472656 11.730469-26.203125 26.199219-26.203125 14.472656 0 26.203125 11.730469 26.203125 26.203125zm0 0" fill="#57a4ff"/><path d="m116.5625 439.460938h113.207031v26.761718h-113.207031zm0 0" fill="#fff5cc"/><path d="m282.175781 439.460938h113.203125v26.761718h-113.203125zm0 0" fill="#fff5cc"/><path d="m243.167969 86.203125v-35.871094c0-18.378906 11.578125-34.046875 27.832031-40.125-4.667969-1.746093-9.722656-2.707031-15-2.707031-23.65625 0-42.832031 19.175781-42.832031 42.832031v35.871094l26.898437 26.898437h30c-10.503906-10.503906-16.394531-16.394531-26.898437-26.898437zm0 0" fill="#ffbb85"/><path d="m216.347656 258.542969c-5.148437-5.148438-8.035156-8.035157-13.183594-13.183594v-114.625c6.890626-6.886719 10.75-10.746094 17.636719-17.632813h-30c-6.886719 6.886719-10.746093 10.746094-17.636719 17.632813v114.625c5.148438 5.148437 8.035157 8.035156 13.183594 13.183594h23.335938v141.28125h30v-141.28125zm0 0" fill="#55e072"/><path d="m77.503906 86.203125v-35.871094c0-18.378906 11.574219-34.046875 27.828125-40.125-4.667969-1.746093-9.722656-2.707031-15-2.707031-23.652343 0-42.828125 19.175781-42.828125 42.832031v35.871094c10.503906 10.503906 16.390625 16.394531 26.894532 26.898437h30c-10.503907-10.503906-16.390626-16.394531-26.894532-26.898437zm0 0" fill="#ffbb85"/><path d="m50.683594 258.542969c-5.148438-5.148438-8.035156-8.035157-13.183594-13.183594v-114.625c6.886719-6.886719 10.746094-10.746094 17.636719-17.632813h-30c-6.890625 6.886719-10.75 10.746094-17.636719 17.632813v114.625c5.148438 5.148437 8.035156 8.035156 13.183594 13.183594h23.332031v141.28125h30v-141.28125zm0 0" fill="#ff7956"/><path d="m408.835938 86.203125v-35.871094c0-18.378906 11.574218-34.046875 27.832031-40.125-4.671875-1.746093-9.722657-2.707031-15-2.707031-23.65625 0-42.832031 19.175781-42.832031 42.832031v35.871094c10.503906 10.503906 16.394531 16.394531 26.898437 26.898437h30c-10.507813-10.503906-16.394531-16.394531-26.898437-26.898437zm0 0" fill="#ffbb85"/><path d="m382.015625 258.542969c-5.148437-5.148438-8.035156-8.035157-13.183594-13.183594v-114.625c6.886719-6.886719 10.75-10.746094 17.636719-17.632813h-30c-6.886719 6.886719-10.75 10.746094-17.636719 17.632813v114.625c5.148438 5.148437 8.035157 8.035156 13.183594 13.183594h23.332031v141.28125h30v-141.28125zm0 0" fill="#ed4726"/><path d="m84.101562 452.84375c0-10.929688 6.695313-20.292969 16.203126-24.222656-3.082032-1.273438-6.457032-1.980469-10-1.980469-14.472657 0-26.203126 11.730469-26.203126 26.203125 0 14.46875 11.730469 26.199219 26.203126 26.199219 3.542968 0 6.917968-.707031 10-1.980469-9.507813-3.929688-16.203126-13.292969-16.203126-24.21875zm0 0" fill="#006df0"/><path d="m249.769531 452.84375c0-10.929688 6.691407-20.292969 16.203125-24.222656-3.082031-1.273438-6.460937-1.980469-10-1.980469-14.472656 0-26.203125 11.730469-26.203125 26.203125 0 14.46875 11.730469 26.199219 26.203125 26.199219 3.539063 0 6.917969-.707031 10-1.980469-9.511718-3.929688-16.203125-13.292969-16.203125-24.21875zm0 0" fill="#006df0"/><path d="m415.4375 452.84375c0-10.929688 6.691406-20.292969 16.199219-24.222656-3.082031-1.273438-6.457031-1.980469-10-1.980469-14.46875 0-26.199219 11.730469-26.199219 26.203125 0 14.46875 11.730469 26.199219 26.199219 26.199219 3.542969 0 6.917969-.707031 10-1.980469-9.507813-3.929688-16.199219-13.292969-16.199219-24.21875zm0 0" fill="#006df0"/><path d="m116.5625 439.460938h30v26.761718h-30zm0 0" fill="#ffc477"/><path d="m282.175781 439.460938h30v26.761718h-30zm0 0" fill="#ffc477"/><path d="m489.972656 105.601562h-34.265625l16.289063-16.292968v-38.976563c0-27.753906-22.578125-50.332031-50.328125-50.332031-27.753907 0-50.332031 22.578125-50.332031 50.332031v38.976563l16.292968 16.292968h-34.265625l-22.027343 22.027344v120.835938l17.574218 17.578125h18.941406v141.28125h44.539063l9.277344-9.277344 9.277343 9.277344h44.539063v-141.28125h18.941406l17.574219-17.578125v-120.835938zm-103.636718-22.503906v-32.765625c0-19.480469 15.847656-35.332031 35.328124-35.332031 19.484376 0 35.332032 15.851562 35.332032 35.332031v32.765625l-22.503906 22.503906h-25.652344zm110.664062 159.15625-8.789062 8.789063h-12.726563v-90.777344h-15v232.058594h-23.328125l-8.019531-8.019531v-114.421876h-15v114.476563l-7.960938 7.964844h-23.328125v-232.0625h-15v90.777343h-12.726562l-8.789063-8.789062v-108.410156l13.242188-13.238282h124.183593l13.242188 13.238282zm0 0"/><path d="m421.636719 419.140625c-10.703125 0-20.257813 5.015625-26.4375 12.820313h-112.789063c-6.179687-7.804688-15.734375-12.820313-26.4375-12.820313-10.707031 0-20.257812 5.015625-26.4375 12.820313h-112.792968c-6.179688-7.804688-15.734376-12.820313-26.4375-12.820313-18.582032 0-33.703126 15.117187-33.703126 33.699219 0 18.585937 15.121094 33.703125 33.703126 33.703125 10.707031 0 20.261718-5.015625 26.4375-12.820313h112.792968c6.179688 7.804688 15.734375 12.820313 26.4375 12.820313 10.707032 0 20.261719-5.015625 26.4375-12.820313h112.789063c6.179687 7.804688 15.734375 12.820313 26.4375 12.820313 18.585937 0 33.703125-15.117188 33.703125-33.703125 0-18.582032-15.117188-33.699219-33.703125-33.699219zm-331.332031 52.402344c-10.3125 0-18.703126-8.390625-18.703126-18.703125s8.390626-18.699219 18.703126-18.699219 18.703124 8.386719 18.703124 18.699219-8.390624 18.703125-18.703124 18.703125zm131.964843-12.820313h-98.207031v-11.761718h98.207031zm33.703125 12.820313c-10.3125 0-18.703125-8.390625-18.703125-18.703125s8.390625-18.699219 18.703125-18.699219 18.703125 8.386719 18.703125 18.699219-8.390625 18.703125-18.703125 18.703125zm131.90625-12.820313h-98.203125v-11.761718h98.203125zm33.757813 12.820313c-10.3125 0-18.703125-8.390625-18.703125-18.703125s8.390625-18.699219 18.703125-18.699219 18.703125 8.386719 18.703125 18.699219-8.390625 18.703125-18.703125 18.703125zm0 0"/><path d="m202.183594 266.042969v141.28125h44.539062l9.277344-9.277344 9.277344 9.277344h44.539062v-141.28125h13.917969v-15h-13.917969v-90.777344h-15v232.058594h-23.324218l-8.019532-8.019531v-114.421876h-15v114.476563l-7.964844 7.964844h-23.328124v-232.058594h-15v90.773437h-12.726563l-8.789063-8.785156v-108.414062l13.242188-13.238282h124.183594l1.296875 1.292969 10.605469-10.605469-5.6875-5.6875h-34.265626l16.289063-16.292968v-38.976563c0-27.753906-22.578125-50.332031-50.328125-50.332031-27.753906 0-50.332031 22.578125-50.332031 50.332031v38.976563l16.289062 16.292968h-34.261719l-22.03125 22.027344v120.839844l17.578126 17.574219zm18.484375-182.945313v-32.765625c0-19.480469 15.851562-35.332031 35.332031-35.332031s35.332031 15.851562 35.332031 35.332031v32.765625l-22.503906 22.503906h-25.65625zm0 0"/><path d="m81.054688 407.324219 9.277343-9.277344 9.277344 9.277344h44.542969v-141.28125h13.910156v-15h-13.910156v-90.777344h-15v232.058594h-23.328125l-8.019531-8.019531v-114.421876h-15v114.476563l-7.964844 7.960937h-23.324219v-232.054687h-15v90.773437h-12.726563l-8.789062-8.785156v-108.414062l13.242188-13.238282h124.183593l1.296875 1.296876 10.605469-10.609376-5.691406-5.6875h-34.261719l16.289062-16.292968v-38.976563c0-27.753906-22.578124-50.332031-50.328124-50.332031-27.753907 0-50.332032 22.578125-50.332032 50.332031v38.976563l16.289063 16.292968h-34.265625l-22.027344 22.027344v120.839844l17.574219 17.570312h18.941406v141.28125h44.539063zm-26.050782-324.226563v-32.765625c0-19.480469 15.847656-35.332031 35.328125-35.332031s35.332031 15.851562 35.332031 35.332031v32.765625l-22.503906 22.503906h-25.65625zm0 0"/><g fill="#fff"><path d="m266.882812 93.402344-10.605468-10.605469 10.054687-10.054687v-.421876h.421875l1.773438-1.773437 1.773437 1.773437h11.03125v6.632813zm14.449219-31.082032h-15v-11.988281c0-.585937-.050781-1.171875-.148437-1.742187l14.789062-2.511719c.238282 1.394531.359375 2.824219.359375 4.25zm-17.632812-18.867187c-1.964844-2.195313-4.769531-3.453125-7.699219-3.453125v-15c7.1875 0 14.066406 3.078125 18.871094 8.445312zm0 0"/><path d="m101.214844 93.402344-10.605469-10.605469 10.054687-10.054687v-.425782h.421876l1.773437-1.773437 1.777344 1.773437h11.027343v6.636719zm14.449218-31.082032h-15v-11.988281c0-.585937-.050781-1.171875-.144531-1.742187l14.789063-2.511719c.234375 1.394531.355468 2.824219.355468 4.25zm-17.632812-18.867187c-1.964844-2.195313-4.769531-3.453125-7.699219-3.453125v-15c7.1875 0 14.066407 3.078125 18.875 8.445312zm0 0"/><path d="m432.550781 93.402344-10.609375-10.605469 10.054688-10.054687v-.421876h.425781l1.773437-1.773437 1.773438 1.773437h11.027344v6.632813zm14.445313-31.082032h-15v-11.988281c0-.585937-.046875-1.171875-.144532-1.742187l14.789063-2.511719c.238281 1.394531.355469 2.824219.355469 4.25zm-17.632813-18.867187c-1.964843-2.195313-4.769531-3.453125-7.699219-3.453125v-15c7.191407 0 14.066407 3.078125 18.875 8.445312zm0 0"/><path d="m286.816406 381.796875h-15v-55.226563h15zm0-65.226563h-15v-15h15zm0-25h-15v-15h15zm0 0"/><path d="m452.484375 381.796875h-15v-55.226563h15zm0-65.226563h-15v-15h15zm0-25h-15v-15h15zm0 0"/><path d="m121.152344 381.796875h-15v-55.226563h15zm0-65.226563h-15v-15h15zm0-25h-15v-15h15zm0 0"/></g></svg>