<?xml version="1.0" standalone="no"?>
<!DOCTYPE svg PUBLIC "-//W3C//DTD SVG 20010904//EN"
 "http://www.w3.org/TR/2001/REC-SVG-20010904/DTD/svg10.dtd">
<svg version="1.0" xmlns="http://www.w3.org/2000/svg"
 width="1000.000000pt" height="1000.000000pt" viewBox="0 0 1000.000000 1000.000000"
 preserveAspectRatio="xMidYMid meet">
<g transform="translate(0.000000,1000.000000) scale(0.100000,-0.100000)"
fill="#000000" stroke="none">
<path d="M5324 7491 c-18 -4 -47 -17 -65 -29 -54 -33 -2706 -2692 -2731 -2737
-31 -56 -30 -153 1 -214 14 -27 97 -118 208 -229 l185 -185 617 617 618 617
670 -670 c369 -369 682 -675 695 -680 18 -7 33 -6 49 3 34 18 449 434 459 461
5 14 4 31 -4 46 -7 13 -313 325 -680 692 -368 367 -667 670 -665 672 2 3 278
279 614 615 l610 611 -185 184 c-113 113 -201 192 -226 204 -49 23 -126 33
-170 22z"/>
<path d="M5828 6631 l-257 -258 417 -417 c409 -411 480 -486 538 -576 16 -25
32 -47 35 -50 8 -6 102 -203 117 -245 55 -151 76 -285 76 -475 0 -184 -22
-324 -71 -450 -4 -8 -7 -17 -7 -20 -2 -9 -37 -94 -47 -110 -4 -8 -18 -35 -30
-60 -13 -25 -25 -47 -28 -50 -3 -3 -15 -21 -25 -40 -58 -106 -219 -279 -346
-371 -65 -48 -165 -111 -180 -115 -3 0 -35 -15 -71 -32 -277 -130 -635 -155
-948 -67 -62 18 -200 72 -217 86 -6 5 -13 7 -16 4 -3 -3 -11 1 -18 10 -7 8
-17 15 -22 15 -14 0 -147 89 -208 139 -30 25 -243 233 -474 462 l-418 418
-260 -260 -259 -261 438 -436 c241 -241 470 -462 508 -493 87 -70 213 -156
285 -196 30 -17 72 -40 92 -52 95 -52 378 -155 483 -176 203 -40 308 -50 495
-49 320 1 611 69 915 215 50 24 95 48 102 53 6 6 39 26 72 45 134 75 306 221
477 403 51 53 167 212 216 296 139 234 221 450 269 707 29 157 36 253 33 425
-3 155 -5 175 -18 260 -4 25 -10 57 -12 72 -41 260 -166 568 -326 807 -64 93
-54 80 -134 176 -64 76 -903 925 -914 924 -3 0 -121 -116 -262 -258z"/>
</g>
</svg>
